<svg xmlns="http://www.w3.org/2000/svg" version="1.0" width="630.000000pt" height="530.000000pt" viewBox="0 0 630.000000 530.000000" preserveAspectRatio="xMidYMid meet">

<g transform="translate(0.000000,530.000000) scale(0.100000,-0.100000)" fill="#ef0909" stroke="none">
<path d="M170 2670 l0 -2470 905 0 905 0 0 2470 0 2470 -905 0 -905 0 0 -2470z" fill="#ef0909"/>
<path d="M4240 2670 l0 -2470 920 0 920 0 0 2470 0 2470 -920 0 -920 0 0 -2470z" fill="#ef0909"/>
<path d="M2190 4340 l0 -780 920 0 920 0 0 780 0 780 -920 0 -920 0 0 -780z" fill="#ef0909"/>
<path d="M2190 2660 l0 -780 920 0 920 0 0 780 0 780 -920 0 -920 0 0 -780z" fill="#ef0909"/>
<path d="M2190 960 l0 -780 920 0 920 0 0 780 0 780 -920 0 -920 0 0 -780z" fill="#ef0909"/>
</g>
</svg>