<svg xmlns="http://www.w3.org/2000/svg" version="1.1" xmlns:xlink="http://www.w3.org/1999/xlink" xmlns:svgjs="http://svgjs.com/svgjs" width="1366" height="80.5" preserveAspectRatio="none" viewBox="0 0 1366 80.5"><g mask="url(&quot;#SvgjsMask1167&quot;)" fill="none"><path d="M -221.00429849212583,14.25 C -198.2,27.25 -152.6,75.05 -107.00429849212584,79.25 C -61.4,83.45 -38.6,42.05 6.995701507874159,35.25 C 52.6,28.45 75.4,50.25 120.99570150787416,45.25 C 166.6,40.25 189.4,4.05 234.99570150787417,10.25 C 280.6,16.45 303.4,75.65 348.9957015078742,76.25 C 394.6,76.85 417.4,17.65 462.9957015078742,13.25 C 508.6,8.85 531.4,50.45 576.9957015078742,54.25 C 622.6,58.05 645.4,32.45 690.9957015078742,32.25 C 736.6,32.05 759.4,57.25 804.9957015078742,53.25 C 850.6,49.25 873.4,12.85 918.9957015078742,12.25 C 964.6,11.65 987.4,50.45 1032.9957015078742,50.25 C 1078.6,50.05 1101.4,11.85 1146.9957015078742,11.25 C 1192.6,10.65 1217.19,47.65 1260.9957015078742,47.25 C 1304.8,46.85 1345,16.85 1366,9.25" stroke="rgba(19, 46, 101, 1)" stroke-width="2"></path><path d="M -143.7842065335581,43.25 C -120.98,39.85 -75.38,21.25 -29.784206533558088,26.25 C 15.82,31.25 38.62,70.05 84.21579346644191,68.25 C 129.82,66.45 152.62,20.25 198.2157934664419,17.25 C 243.82,14.25 266.62,53.65 312.21579346644194,53.25 C 357.82,52.85 380.62,16.05 426.21579346644194,15.25 C 471.82,14.45 494.62,51.05 540.2157934664419,49.25 C 585.82,47.45 608.62,5.85 654.2157934664419,6.25 C 699.82,6.65 722.62,50.45 768.2157934664419,51.25 C 813.82,52.05 836.62,7.05 882.2157934664419,10.25 C 927.82,13.45 950.62,66.85 996.2157934664419,67.25 C 1041.82,67.65 1064.62,16.25 1110.215793466442,12.25 C 1155.82,8.25 1178.62,42.85 1224.215793466442,47.25 C 1269.82,51.65 1309.86,30.85 1338.215793466442,34.25 C 1366.57,37.65 1360.44,58.25 1366,64.25" stroke="rgba(23, 53, 179, 0.73)" stroke-width="2"></path><path d="M -206.50060157377342,63.25 C -183.7,53.65 -138.1,18.25 -92.50060157377342,15.25 C -46.9,12.25 -24.1,46.05 21.499398426226577,48.25 C 67.1,50.45 89.9,26.65 135.49939842622658,26.25 C 181.1,25.85 203.9,48.05 249.49939842622658,46.25 C 295.1,44.45 317.9,17.25 363.49939842622655,17.25 C 409.1,17.25 431.9,46.25 477.49939842622655,46.25 C 523.1,46.25 545.9,13.45 591.4993984262265,17.25 C 637.1,21.05 659.9,62.05 705.4993984262265,65.25 C 751.1,68.45 773.9,30.05 819.4993984262265,33.25 C 865.1,36.45 887.9,86.65 933.4993984262265,81.25 C 979.1,75.85 1001.9,14.25 1047.4993984262267,6.25 C 1093.1,-1.75 1115.9,38.25 1161.4993984262267,41.25 C 1207.1,44.25 1234.6,13.45 1275.4993984262267,21.25 C 1316.4,29.05 1347.9,68.45 1366,80.25" stroke="rgba(23, 53, 179, 0.73)" stroke-width="2"></path><path d="M -11.425434586360808,2.25 C 11.37,14.05 56.97,54.65 102.57456541363919,61.25 C 148.17,67.85 170.97,38.05 216.5745654136392,35.25 C 262.17,32.45 284.97,50.65 330.5745654136392,47.25 C 376.17,43.85 398.97,18.45 444.5745654136392,18.25 C 490.17,18.05 512.97,46.85 558.5745654136392,46.25 C 604.17,45.65 626.97,13.65 672.5745654136392,15.25 C 718.17,16.85 740.97,54.05 786.5745654136392,54.25 C 832.17,54.45 854.97,17.85 900.5745654136392,16.25 C 946.17,14.65 968.97,42.45 1014.5745654136392,46.25 C 1060.17,50.05 1082.97,29.45 1128.5745654136392,35.25 C 1174.17,41.05 1196.97,78.85 1242.5745654136392,75.25 C 1288.17,71.65 1310.97,23.65 1356.5745654136392,17.25 C 1402.17,10.85 1468.69,44.05 1470.5745654136392,43.25 C 1472.46,42.45 1386.91,19.25 1366,13.25" stroke="rgba(19, 46, 101, 1)" stroke-width="2"></path></g><defs><mask id="SvgjsMask1167"><rect width="1366" height="80.5" fill="#ffffff"></rect></mask></defs></svg>