<svg xmlns="http://www.w3.org/2000/svg" version="1.1" xmlns:xlink="http://www.w3.org/1999/xlink" xmlns:svgjs="http://svgjs.com/svgjs" width="1366" height="310" preserveAspectRatio="none" viewBox="0 0 1366 310"><g mask="url(&quot;#SvgjsMask1089&quot;)" fill="none"><path d="M-89.19 222.71L-89.19 222.71" stroke="#132e65" stroke-width="1.5"></path><path d="M-89.19 222.71L73.75 260.24" stroke="#132e65" stroke-width="1.5"></path><path d="M-89.19 222.71L-93.44 396.62" stroke="#132e65" stroke-width="1.5"></path><path d="M-89.19 222.71L103.61 387.96" stroke="#132e65" stroke-width="1.5"></path><path d="M-89.19 222.71L-67.01 492.63" stroke="#132e65" stroke-width="1.5"></path><path d="M-89.19 222.71L209.92 189.48" stroke="#132e65" stroke-width="1.5"></path><path d="M-93.44 396.62L-93.44 396.62" stroke="#132e65" stroke-width="1.5"></path><path d="M-93.44 396.62L-67.01 492.63" stroke="#132e65" stroke-width="1.5"></path><path d="M-93.44 396.62L103.61 387.96" stroke="#132e65" stroke-width="1.5"></path><path d="M-93.44 396.62L73.75 260.24" stroke="#132e65" stroke-width="1.5"></path><path d="M-67.01 492.63L-67.01 492.63" stroke="#132e65" stroke-width="1.5"></path><path d="M-67.01 492.63L109.35 556.17" stroke="#132e65" stroke-width="1.5"></path><path d="M-67.01 492.63L103.61 387.96" stroke="#132e65" stroke-width="1.5"></path><path d="M-67.01 492.63L73.75 260.24" stroke="#132e65" stroke-width="1.5"></path><path d="M-67.01 492.63L198.4 561.62" stroke="#132e65" stroke-width="1.5"></path><path d="M73.75 260.24L73.75 260.24" stroke="#132e65" stroke-width="1.5"></path><path d="M73.75 260.24L103.61 387.96" stroke="#132e65" stroke-width="1.5"></path><path d="M73.75 260.24L209.92 189.48" stroke="#132e65" stroke-width="1.5"></path><path d="M103.61 387.96L103.61 387.96" stroke="#132e65" stroke-width="1.5"></path><path d="M103.61 387.96L256.48 386.31" stroke="#132e65" stroke-width="1.5"></path><path d="M109.35 556.17L109.35 556.17" stroke="#132e65" stroke-width="1.5"></path><path d="M109.35 556.17L198.4 561.62" stroke="#132e65" stroke-width="1.5"></path><path d="M109.35 556.17L103.61 387.96" stroke="#132e65" stroke-width="1.5"></path><path d="M109.35 556.17L256.48 386.31" stroke="#132e65" stroke-width="1.5"></path><path d="M209.92 189.48L209.92 189.48" stroke="#132e65" stroke-width="1.5"></path><path d="M209.92 189.48L398.19 250.23" stroke="#132e65" stroke-width="1.5"></path><path d="M209.92 189.48L256.48 386.31" stroke="#132e65" stroke-width="1.5"></path><path d="M209.92 189.48L103.61 387.96" stroke="#132e65" stroke-width="1.5"></path><path d="M256.48 386.31L256.48 386.31" stroke="#132e65" stroke-width="1.5"></path><path d="M256.48 386.31L400.9 409.32" stroke="#132e65" stroke-width="1.5"></path><path d="M256.48 386.31L383.61 494.28" stroke="#132e65" stroke-width="1.5"></path><path d="M256.48 386.31L198.4 561.62" stroke="#132e65" stroke-width="1.5"></path><path d="M256.48 386.31L398.19 250.23" stroke="#132e65" stroke-width="1.5"></path><path d="M198.4 561.62L198.4 561.62" stroke="#132e65" stroke-width="1.5"></path><path d="M398.19 250.23L398.19 250.23" stroke="#132e65" stroke-width="1.5"></path><path d="M398.19 250.23L491.17 243.33" stroke="#132e65" stroke-width="1.5"></path><path d="M398.19 250.23L511.46 355.08" stroke="#132e65" stroke-width="1.5"></path><path d="M398.19 250.23L400.9 409.32" stroke="#132e65" stroke-width="1.5"></path><path d="M400.9 409.32L400.9 409.32" stroke="#132e65" stroke-width="1.5"></path><path d="M400.9 409.32L383.61 494.28" stroke="#132e65" stroke-width="1.5"></path><path d="M400.9 409.32L511.46 355.08" stroke="#132e65" stroke-width="1.5"></path><path d="M383.61 494.28L383.61 494.28" stroke="#132e65" stroke-width="1.5"></path><path d="M383.61 494.28L494.9 506.54" stroke="#132e65" stroke-width="1.5"></path><path d="M491.17 243.33L491.17 243.33" stroke="#132e65" stroke-width="1.5"></path><path d="M491.17 243.33L511.46 355.08" stroke="#132e65" stroke-width="1.5"></path><path d="M491.17 243.33L400.9 409.32" stroke="#132e65" stroke-width="1.5"></path><path d="M491.17 243.33L643.09 386.57" stroke="#132e65" stroke-width="1.5"></path><path d="M491.17 243.33L710.88 230.62" stroke="#132e65" stroke-width="1.5"></path><path d="M491.17 243.33L494.9 506.54" stroke="#132e65" stroke-width="1.5"></path><path d="M511.46 355.08L511.46 355.08" stroke="#132e65" stroke-width="1.5"></path><path d="M494.9 506.54L494.9 506.54" stroke="#132e65" stroke-width="1.5"></path><path d="M494.9 506.54L400.9 409.32" stroke="#132e65" stroke-width="1.5"></path><path d="M494.9 506.54L511.46 355.08" stroke="#132e65" stroke-width="1.5"></path><path d="M494.9 506.54L643.09 386.57" stroke="#132e65" stroke-width="1.5"></path><path d="M494.9 506.54L702.84 496.31" stroke="#132e65" stroke-width="1.5"></path><path d="M710.88 230.62L710.88 230.62" stroke="#132e65" stroke-width="1.5"></path><path d="M710.88 230.62L809.22 236.27" stroke="#132e65" stroke-width="1.5"></path><path d="M710.88 230.62L643.09 386.57" stroke="#132e65" stroke-width="1.5"></path><path d="M710.88 230.62L826.99 57.9" stroke="#132e65" stroke-width="1.5"></path><path d="M710.88 230.62L828.22 411.25" stroke="#132e65" stroke-width="1.5"></path><path d="M643.09 386.57L643.09 386.57" stroke="#132e65" stroke-width="1.5"></path><path d="M643.09 386.57L702.84 496.31" stroke="#132e65" stroke-width="1.5"></path><path d="M643.09 386.57L511.46 355.08" stroke="#132e65" stroke-width="1.5"></path><path d="M643.09 386.57L828.22 411.25" stroke="#132e65" stroke-width="1.5"></path><path d="M702.84 496.31L702.84 496.31" stroke="#132e65" stroke-width="1.5"></path><path d="M702.84 496.31L809.02 497.82" stroke="#132e65" stroke-width="1.5"></path><path d="M702.84 496.31L828.22 411.25" stroke="#132e65" stroke-width="1.5"></path><path d="M702.84 496.31L511.46 355.08" stroke="#132e65" stroke-width="1.5"></path><path d="M702.84 496.31L948.33 536.9" stroke="#132e65" stroke-width="1.5"></path><path d="M858.59 -99.44L858.59 -99.44" stroke="#132e65" stroke-width="1.5"></path><path d="M858.59 -99.44L1011.48 -85.03" stroke="#132e65" stroke-width="1.5"></path><path d="M858.59 -99.44L826.99 57.9" stroke="#132e65" stroke-width="1.5"></path><path d="M858.59 -99.44L978.07 106.26" stroke="#132e65" stroke-width="1.5"></path><path d="M858.59 -99.44L1128.02 -72.75" stroke="#132e65" stroke-width="1.5"></path><path d="M858.59 -99.44L1109.65 70.68" stroke="#132e65" stroke-width="1.5"></path><path d="M858.59 -99.44L976.46 215.11" stroke="#132e65" stroke-width="1.5"></path><path d="M826.99 57.9L826.99 57.9" stroke="#132e65" stroke-width="1.5"></path><path d="M826.99 57.9L978.07 106.26" stroke="#132e65" stroke-width="1.5"></path><path d="M826.99 57.9L809.22 236.27" stroke="#132e65" stroke-width="1.5"></path><path d="M809.22 236.27L809.22 236.27" stroke="#132e65" stroke-width="1.5"></path><path d="M809.22 236.27L976.46 215.11" stroke="#132e65" stroke-width="1.5"></path><path d="M809.22 236.27L828.22 411.25" stroke="#132e65" stroke-width="1.5"></path><path d="M828.22 411.25L828.22 411.25" stroke="#132e65" stroke-width="1.5"></path><path d="M828.22 411.25L809.02 497.82" stroke="#132e65" stroke-width="1.5"></path><path d="M828.22 411.25L942.6 361.68" stroke="#132e65" stroke-width="1.5"></path><path d="M828.22 411.25L948.33 536.9" stroke="#132e65" stroke-width="1.5"></path><path d="M809.02 497.82L809.02 497.82" stroke="#132e65" stroke-width="1.5"></path><path d="M809.02 497.82L948.33 536.9" stroke="#132e65" stroke-width="1.5"></path><path d="M809.02 497.82L942.6 361.68" stroke="#132e65" stroke-width="1.5"></path><path d="M1011.48 -85.03L1011.48 -85.03" stroke="#132e65" stroke-width="1.5"></path><path d="M1011.48 -85.03L1128.02 -72.75" stroke="#132e65" stroke-width="1.5"></path><path d="M1011.48 -85.03L1109.65 70.68" stroke="#132e65" stroke-width="1.5"></path><path d="M1011.48 -85.03L978.07 106.26" stroke="#132e65" stroke-width="1.5"></path><path d="M978.07 106.26L978.07 106.26" stroke="#132e65" stroke-width="1.5"></path><path d="M978.07 106.26L976.46 215.11" stroke="#132e65" stroke-width="1.5"></path><path d="M978.07 106.26L1109.65 70.68" stroke="#132e65" stroke-width="1.5"></path><path d="M978.07 106.26L1111.85 239.54" stroke="#132e65" stroke-width="1.5"></path><path d="M976.46 215.11L976.46 215.11" stroke="#132e65" stroke-width="1.5"></path><path d="M976.46 215.11L1111.85 239.54" stroke="#132e65" stroke-width="1.5"></path><path d="M942.6 361.68L942.6 361.68" stroke="#132e65" stroke-width="1.5"></path><path d="M942.6 361.68L976.46 215.11" stroke="#132e65" stroke-width="1.5"></path><path d="M942.6 361.68L948.33 536.9" stroke="#132e65" stroke-width="1.5"></path><path d="M942.6 361.68L809.22 236.27" stroke="#132e65" stroke-width="1.5"></path><path d="M948.33 536.9L948.33 536.9" stroke="#132e65" stroke-width="1.5"></path><path d="M1128.02 -72.75L1128.02 -72.75" stroke="#132e65" stroke-width="1.5"></path><path d="M1128.02 -72.75L1109.65 70.68" stroke="#132e65" stroke-width="1.5"></path><path d="M1109.65 70.68L1109.65 70.68" stroke="#132e65" stroke-width="1.5"></path><path d="M1111.85 239.54L1111.85 239.54" stroke="#132e65" stroke-width="1.5"></path><path d="M1111.85 239.54L1141.49 361.72" stroke="#132e65" stroke-width="1.5"></path><path d="M1111.85 239.54L1243.78 252.82" stroke="#132e65" stroke-width="1.5"></path><path d="M1111.85 239.54L1109.65 70.68" stroke="#132e65" stroke-width="1.5"></path><path d="M1111.85 239.54L942.6 361.68" stroke="#132e65" stroke-width="1.5"></path><path d="M1141.49 361.72L1141.49 361.72" stroke="#132e65" stroke-width="1.5"></path><path d="M1141.49 361.72L1243.78 252.82" stroke="#132e65" stroke-width="1.5"></path><path d="M1141.49 361.72L1290.43 391.26" stroke="#132e65" stroke-width="1.5"></path><path d="M1141.49 361.72L1272.84 505.55" stroke="#132e65" stroke-width="1.5"></path><path d="M1292.7 -43.08L1292.7 -43.08" stroke="#132e65" stroke-width="1.5"></path><path d="M1292.7 -43.08L1281.93 100.84" stroke="#132e65" stroke-width="1.5"></path><path d="M1292.7 -43.08L1434.56 -82.48" stroke="#132e65" stroke-width="1.5"></path><path d="M1281.93 100.84L1281.93 100.84" stroke="#132e65" stroke-width="1.5"></path><path d="M1281.93 100.84L1243.78 252.82" stroke="#132e65" stroke-width="1.5"></path><path d="M1281.93 100.84L1109.65 70.68" stroke="#132e65" stroke-width="1.5"></path><path d="M1243.78 252.82L1243.78 252.82" stroke="#132e65" stroke-width="1.5"></path><path d="M1243.78 252.82L1290.43 391.26" stroke="#132e65" stroke-width="1.5"></path><path d="M1290.43 391.26L1290.43 391.26" stroke="#132e65" stroke-width="1.5"></path><path d="M1290.43 391.26L1272.84 505.55" stroke="#132e65" stroke-width="1.5"></path><path d="M1290.43 391.26L1451.28 402.05" stroke="#132e65" stroke-width="1.5"></path><path d="M1290.43 391.26L1412.83 514.24" stroke="#132e65" stroke-width="1.5"></path><path d="M1290.43 391.26L1421.4 257.66" stroke="#132e65" stroke-width="1.5"></path><path d="M1272.84 505.55L1272.84 505.55" stroke="#132e65" stroke-width="1.5"></path><path d="M1272.84 505.55L1412.83 514.24" stroke="#132e65" stroke-width="1.5"></path><path d="M1272.84 505.55L1451.28 402.05" stroke="#132e65" stroke-width="1.5"></path><path d="M1434.56 -82.48L1434.56 -82.48" stroke="#132e65" stroke-width="1.5"></path><path d="M1434.56 -82.48L1562.9 -50.2" stroke="#132e65" stroke-width="1.5"></path><path d="M1434.56 -82.48L1462.38 54.59" stroke="#132e65" stroke-width="1.5"></path><path d="M1434.56 -82.48L1540.21 109.97" stroke="#132e65" stroke-width="1.5"></path><path d="M1434.56 -82.48L1281.93 100.84" stroke="#132e65" stroke-width="1.5"></path><path d="M1462.38 54.59L1462.38 54.59" stroke="#132e65" stroke-width="1.5"></path><path d="M1462.38 54.59L1540.21 109.97" stroke="#132e65" stroke-width="1.5"></path><path d="M1462.38 54.59L1562.9 -50.2" stroke="#132e65" stroke-width="1.5"></path><path d="M1462.38 54.59L1281.93 100.84" stroke="#132e65" stroke-width="1.5"></path><path d="M1462.38 54.59L1292.7 -43.08" stroke="#132e65" stroke-width="1.5"></path><path d="M1462.38 54.59L1577.95 222.81" stroke="#132e65" stroke-width="1.5"></path><path d="M1421.4 257.66L1421.4 257.66" stroke="#132e65" stroke-width="1.5"></path><path d="M1421.4 257.66L1451.28 402.05" stroke="#132e65" stroke-width="1.5"></path><path d="M1421.4 257.66L1577.95 222.81" stroke="#132e65" stroke-width="1.5"></path><path d="M1451.28 402.05L1451.28 402.05" stroke="#132e65" stroke-width="1.5"></path><path d="M1451.28 402.05L1555.43 387.46" stroke="#132e65" stroke-width="1.5"></path><path d="M1451.28 402.05L1412.83 514.24" stroke="#132e65" stroke-width="1.5"></path><path d="M1451.28 402.05L1603.03 511.95" stroke="#132e65" stroke-width="1.5"></path><path d="M1412.83 514.24L1412.83 514.24" stroke="#132e65" stroke-width="1.5"></path><path d="M1412.83 514.24L1603.03 511.95" stroke="#132e65" stroke-width="1.5"></path><path d="M1412.83 514.24L1555.43 387.46" stroke="#132e65" stroke-width="1.5"></path><path d="M1562.9 -50.2L1562.9 -50.2" stroke="#132e65" stroke-width="1.5"></path><path d="M1540.21 109.97L1540.21 109.97" stroke="#132e65" stroke-width="1.5"></path><path d="M1540.21 109.97L1577.95 222.81" stroke="#132e65" stroke-width="1.5"></path><path d="M1540.21 109.97L1562.9 -50.2" stroke="#132e65" stroke-width="1.5"></path><path d="M1540.21 109.97L1421.4 257.66" stroke="#132e65" stroke-width="1.5"></path><path d="M1577.95 222.81L1577.95 222.81" stroke="#132e65" stroke-width="1.5"></path><path d="M1577.95 222.81L1555.43 387.46" stroke="#132e65" stroke-width="1.5"></path><path d="M1577.95 222.81L1451.28 402.05" stroke="#132e65" stroke-width="1.5"></path><path d="M1577.95 222.81L1562.9 -50.2" stroke="#132e65" stroke-width="1.5"></path><path d="M1555.43 387.46L1555.43 387.46" stroke="#132e65" stroke-width="1.5"></path><path d="M1555.43 387.46L1603.03 511.95" stroke="#132e65" stroke-width="1.5"></path><path d="M1555.43 387.46L1421.4 257.66" stroke="#132e65" stroke-width="1.5"></path><path d="M1555.43 387.46L1290.43 391.26" stroke="#132e65" stroke-width="1.5"></path><path d="M1603.03 511.95L1603.03 511.95" stroke="#132e65" stroke-width="1.5"></path><circle r="5" cx="-89.19" cy="222.71" fill="#132e65"></circle><circle r="5" cx="-93.44" cy="396.62" fill="#132e65"></circle><circle r="5" cx="-67.01" cy="492.63" fill="#132e65"></circle><circle r="5" cx="73.75" cy="260.24" fill="#132e65"></circle><circle r="5" cx="103.61" cy="387.96" fill="#132e65"></circle><circle r="5" cx="109.35" cy="556.17" fill="#132e65"></circle><circle r="5" cx="209.92" cy="189.48" fill="#132e65"></circle><circle r="5" cx="256.48" cy="386.31" fill="#132e65"></circle><circle r="5" cx="198.4" cy="561.62" fill="#132e65"></circle><circle r="5" cx="398.19" cy="250.23" fill="#132e65"></circle><circle r="5" cx="400.9" cy="409.32" fill="#132e65"></circle><circle r="5" cx="383.61" cy="494.28" fill="#132e65"></circle><circle r="5" cx="491.17" cy="243.33" fill="#132e65"></circle><circle r="5" cx="511.46" cy="355.08" fill="#132e65"></circle><circle r="5" cx="494.9" cy="506.54" fill="#132e65"></circle><circle r="5" cx="710.88" cy="230.62" fill="#132e65"></circle><circle r="5" cx="643.09" cy="386.57" fill="#132e65"></circle><circle r="5" cx="702.84" cy="496.31" fill="#132e65"></circle><circle r="5" cx="858.59" cy="-99.44" fill="#132e65"></circle><circle r="5" cx="826.99" cy="57.9" fill="#132e65"></circle><circle r="5" cx="809.22" cy="236.27" fill="#132e65"></circle><circle r="5" cx="828.22" cy="411.25" fill="#132e65"></circle><circle r="5" cx="809.02" cy="497.82" fill="#132e65"></circle><circle r="5" cx="1011.48" cy="-85.03" fill="#132e65"></circle><circle r="5" cx="978.07" cy="106.26" fill="#132e65"></circle><circle r="5" cx="976.46" cy="215.11" fill="#132e65"></circle><circle r="5" cx="942.6" cy="361.68" fill="#132e65"></circle><circle r="5" cx="948.33" cy="536.9" fill="#132e65"></circle><circle r="5" cx="1128.02" cy="-72.75" fill="#132e65"></circle><circle r="5" cx="1109.65" cy="70.68" fill="#132e65"></circle><circle r="5" cx="1111.85" cy="239.54" fill="#132e65"></circle><circle r="5" cx="1141.49" cy="361.72" fill="#132e65"></circle><circle r="5" cx="1292.7" cy="-43.08" fill="#132e65"></circle><circle r="5" cx="1281.93" cy="100.84" fill="#132e65"></circle><circle r="5" cx="1243.78" cy="252.82" fill="#132e65"></circle><circle r="5" cx="1290.43" cy="391.26" fill="#132e65"></circle><circle r="5" cx="1272.84" cy="505.55" fill="#132e65"></circle><circle r="5" cx="1434.56" cy="-82.48" fill="#132e65"></circle><circle r="5" cx="1462.38" cy="54.59" fill="#132e65"></circle><circle r="5" cx="1421.4" cy="257.66" fill="#132e65"></circle><circle r="5" cx="1451.28" cy="402.05" fill="#132e65"></circle><circle r="5" cx="1412.83" cy="514.24" fill="#132e65"></circle><circle r="5" cx="1562.9" cy="-50.2" fill="#132e65"></circle><circle r="5" cx="1540.21" cy="109.97" fill="#132e65"></circle><circle r="5" cx="1577.95" cy="222.81" fill="#132e65"></circle><circle r="5" cx="1555.43" cy="387.46" fill="#132e65"></circle><circle r="5" cx="1603.03" cy="511.95" fill="#132e65"></circle><path d="M53.92 358.98L53.92 358.98" stroke="hsl(228.5, 77.2%, 51.5%)" stroke-width="1.5"></path><path d="M53.92 358.98L41.52 254.47" stroke="hsl(228.5, 77.2%, 51.5%)" stroke-width="1.5"></path><path d="M53.92 358.98L-67.99 411.44" stroke="hsl(228.5, 77.2%, 51.5%)" stroke-width="1.5"></path><path d="M552.36 383.53L552.36 383.53" stroke="hsl(228.5, 77.2%, 51.5%)" stroke-width="1.5"></path><path d="M552.36 383.53L547.02 246.99" stroke="hsl(228.5, 77.2%, 51.5%)" stroke-width="1.5"></path><path d="M552.36 383.53L560.5 537.07" stroke="hsl(228.5, 77.2%, 51.5%)" stroke-width="1.5"></path><path d="M552.36 383.53L709.41 355.93" stroke="hsl(228.5, 77.2%, 51.5%)" stroke-width="1.5"></path><path d="M552.36 383.53L383.33 375.61" stroke="hsl(228.5, 77.2%, 51.5%)" stroke-width="1.5"></path><path d="M552.36 383.53L660.79 548.3" stroke="hsl(228.5, 77.2%, 51.5%)" stroke-width="1.5"></path><path d="M552.36 383.53L379.63 547.63" stroke="hsl(228.5, 77.2%, 51.5%)" stroke-width="1.5"></path><path d="M709.41 355.93L709.41 355.93" stroke="hsl(228.5, 77.2%, 51.5%)" stroke-width="1.5"></path><path d="M709.41 355.93L845.95 382.13" stroke="hsl(228.5, 77.2%, 51.5%)" stroke-width="1.5"></path><path d="M709.41 355.93L826.55 252.08" stroke="hsl(228.5, 77.2%, 51.5%)" stroke-width="1.5"></path><path d="M826.55 252.08L826.55 252.08" stroke="hsl(228.5, 77.2%, 51.5%)" stroke-width="1.5"></path><path d="M826.55 252.08L845.95 382.13" stroke="hsl(228.5, 77.2%, 51.5%)" stroke-width="1.5"></path><path d="M804.44 528.04L804.44 528.04" stroke="hsl(228.5, 77.2%, 51.5%)" stroke-width="1.5"></path><path d="M804.44 528.04L660.79 548.3" stroke="hsl(228.5, 77.2%, 51.5%)" stroke-width="1.5"></path><path d="M804.44 528.04L845.95 382.13" stroke="hsl(228.5, 77.2%, 51.5%)" stroke-width="1.5"></path><path d="M804.44 528.04L967.36 521.02" stroke="hsl(228.5, 77.2%, 51.5%)" stroke-width="1.5"></path><path d="M804.44 528.04L709.41 355.93" stroke="hsl(228.5, 77.2%, 51.5%)" stroke-width="1.5"></path><path d="M804.44 528.04L560.5 537.07" stroke="hsl(228.5, 77.2%, 51.5%)" stroke-width="1.5"></path><path d="M804.44 528.04L990.31 368.81" stroke="hsl(228.5, 77.2%, 51.5%)" stroke-width="1.5"></path><path d="M974.3 231.58L974.3 231.58" stroke="hsl(228.5, 77.2%, 51.5%)" stroke-width="1.5"></path><path d="M974.3 231.58L990.31 368.81" stroke="hsl(228.5, 77.2%, 51.5%)" stroke-width="1.5"></path><path d="M974.3 231.58L826.55 252.08" stroke="hsl(228.5, 77.2%, 51.5%)" stroke-width="1.5"></path><path d="M974.3 231.58L1139.86 201.84" stroke="hsl(228.5, 77.2%, 51.5%)" stroke-width="1.5"></path><path d="M1139.86 201.84L1139.86 201.84" stroke="hsl(228.5, 77.2%, 51.5%)" stroke-width="1.5"></path><path d="M1139.86 201.84L1263 225.23" stroke="hsl(228.5, 77.2%, 51.5%)" stroke-width="1.5"></path><path d="M1139.86 201.84L1141.04 44.69" stroke="hsl(228.5, 77.2%, 51.5%)" stroke-width="1.5"></path><path d="M1088.65 504.46L1088.65 504.46" stroke="hsl(228.5, 77.2%, 51.5%)" stroke-width="1.5"></path><path d="M1088.65 504.46L967.36 521.02" stroke="hsl(228.5, 77.2%, 51.5%)" stroke-width="1.5"></path><path d="M1088.65 504.46L1090.98 375.48" stroke="hsl(228.5, 77.2%, 51.5%)" stroke-width="1.5"></path><path d="M1088.65 504.46L990.31 368.81" stroke="hsl(228.5, 77.2%, 51.5%)" stroke-width="1.5"></path><path d="M1391.81 66.67L1391.81 66.67" stroke="hsl(228.5, 77.2%, 51.5%)" stroke-width="1.5"></path><path d="M1391.81 66.67L1451.03 -46.49" stroke="hsl(228.5, 77.2%, 51.5%)" stroke-width="1.5"></path><path d="M1391.81 66.67L1245.64 83.55" stroke="hsl(228.5, 77.2%, 51.5%)" stroke-width="1.5"></path><path d="M1391.81 66.67L1457.64 203.75" stroke="hsl(228.5, 77.2%, 51.5%)" stroke-width="1.5"></path><path d="M-67.99 411.44L-67.99 411.44" stroke="hsl(228.5, 77.2%, 51.5%)" stroke-width="1.5"></path><path d="M-67.99 411.44L-69.31 512.88" stroke="hsl(228.5, 77.2%, 51.5%)" stroke-width="1.5"></path><path d="M-67.99 411.44L41.52 254.47" stroke="hsl(228.5, 77.2%, 51.5%)" stroke-width="1.5"></path><path d="M-67.99 411.44L237.82 402.18" stroke="hsl(228.5, 77.2%, 51.5%)" stroke-width="1.5"></path><path d="M-67.99 411.44L222.8 556.19" stroke="hsl(228.5, 77.2%, 51.5%)" stroke-width="1.5"></path><path d="M-67.99 411.44L383.33 375.61" stroke="hsl(228.5, 77.2%, 51.5%)" stroke-width="1.5"></path><path d="M-69.31 512.88L-69.31 512.88" stroke="hsl(228.5, 77.2%, 51.5%)" stroke-width="1.5"></path><path d="M-69.31 512.88L53.92 358.98" stroke="hsl(228.5, 77.2%, 51.5%)" stroke-width="1.5"></path><path d="M-69.31 512.88L41.52 254.47" stroke="hsl(228.5, 77.2%, 51.5%)" stroke-width="1.5"></path><path d="M-69.31 512.88L222.8 556.19" stroke="hsl(228.5, 77.2%, 51.5%)" stroke-width="1.5"></path><path d="M41.52 254.47L41.52 254.47" stroke="hsl(228.5, 77.2%, 51.5%)" stroke-width="1.5"></path><path d="M41.52 254.47L237.82 402.18" stroke="hsl(228.5, 77.2%, 51.5%)" stroke-width="1.5"></path><path d="M237.82 402.18L237.82 402.18" stroke="hsl(228.5, 77.2%, 51.5%)" stroke-width="1.5"></path><path d="M237.82 402.18L383.33 375.61" stroke="hsl(228.5, 77.2%, 51.5%)" stroke-width="1.5"></path><path d="M237.82 402.18L222.8 556.19" stroke="hsl(228.5, 77.2%, 51.5%)" stroke-width="1.5"></path><path d="M237.82 402.18L53.92 358.98" stroke="hsl(228.5, 77.2%, 51.5%)" stroke-width="1.5"></path><path d="M237.82 402.18L379.63 547.63" stroke="hsl(228.5, 77.2%, 51.5%)" stroke-width="1.5"></path><path d="M222.8 556.19L222.8 556.19" stroke="hsl(228.5, 77.2%, 51.5%)" stroke-width="1.5"></path><path d="M222.8 556.19L379.63 547.63" stroke="hsl(228.5, 77.2%, 51.5%)" stroke-width="1.5"></path><path d="M222.8 556.19L383.33 375.61" stroke="hsl(228.5, 77.2%, 51.5%)" stroke-width="1.5"></path><path d="M222.8 556.19L53.92 358.98" stroke="hsl(228.5, 77.2%, 51.5%)" stroke-width="1.5"></path><path d="M383.33 375.61L383.33 375.61" stroke="hsl(228.5, 77.2%, 51.5%)" stroke-width="1.5"></path><path d="M383.33 375.61L379.63 547.63" stroke="hsl(228.5, 77.2%, 51.5%)" stroke-width="1.5"></path><path d="M383.33 375.61L547.02 246.99" stroke="hsl(228.5, 77.2%, 51.5%)" stroke-width="1.5"></path><path d="M383.33 375.61L560.5 537.07" stroke="hsl(228.5, 77.2%, 51.5%)" stroke-width="1.5"></path><path d="M379.63 547.63L379.63 547.63" stroke="hsl(228.5, 77.2%, 51.5%)" stroke-width="1.5"></path><path d="M379.63 547.63L560.5 537.07" stroke="hsl(228.5, 77.2%, 51.5%)" stroke-width="1.5"></path><path d="M379.63 547.63L660.79 548.3" stroke="hsl(228.5, 77.2%, 51.5%)" stroke-width="1.5"></path><path d="M547.02 246.99L547.02 246.99" stroke="hsl(228.5, 77.2%, 51.5%)" stroke-width="1.5"></path><path d="M547.02 246.99L700.37 191.01" stroke="hsl(228.5, 77.2%, 51.5%)" stroke-width="1.5"></path><path d="M547.02 246.99L709.41 355.93" stroke="hsl(228.5, 77.2%, 51.5%)" stroke-width="1.5"></path><path d="M547.02 246.99L826.55 252.08" stroke="hsl(228.5, 77.2%, 51.5%)" stroke-width="1.5"></path><path d="M547.02 246.99L560.5 537.07" stroke="hsl(228.5, 77.2%, 51.5%)" stroke-width="1.5"></path><path d="M560.5 537.07L560.5 537.07" stroke="hsl(228.5, 77.2%, 51.5%)" stroke-width="1.5"></path><path d="M560.5 537.07L660.79 548.3" stroke="hsl(228.5, 77.2%, 51.5%)" stroke-width="1.5"></path><path d="M560.5 537.07L709.41 355.93" stroke="hsl(228.5, 77.2%, 51.5%)" stroke-width="1.5"></path><path d="M700.37 191.01L700.37 191.01" stroke="hsl(228.5, 77.2%, 51.5%)" stroke-width="1.5"></path><path d="M700.37 191.01L826.55 252.08" stroke="hsl(228.5, 77.2%, 51.5%)" stroke-width="1.5"></path><path d="M660.79 548.3L660.79 548.3" stroke="hsl(228.5, 77.2%, 51.5%)" stroke-width="1.5"></path><path d="M660.79 548.3L709.41 355.93" stroke="hsl(228.5, 77.2%, 51.5%)" stroke-width="1.5"></path><path d="M845.95 382.13L845.95 382.13" stroke="hsl(228.5, 77.2%, 51.5%)" stroke-width="1.5"></path><path d="M845.95 382.13L990.31 368.81" stroke="hsl(228.5, 77.2%, 51.5%)" stroke-width="1.5"></path><path d="M845.95 382.13L967.36 521.02" stroke="hsl(228.5, 77.2%, 51.5%)" stroke-width="1.5"></path><path d="M990.31 368.81L990.31 368.81" stroke="hsl(228.5, 77.2%, 51.5%)" stroke-width="1.5"></path><path d="M990.31 368.81L1090.98 375.48" stroke="hsl(228.5, 77.2%, 51.5%)" stroke-width="1.5"></path><path d="M967.36 521.02L967.36 521.02" stroke="hsl(228.5, 77.2%, 51.5%)" stroke-width="1.5"></path><path d="M967.36 521.02L990.31 368.81" stroke="hsl(228.5, 77.2%, 51.5%)" stroke-width="1.5"></path><path d="M967.36 521.02L1090.98 375.48" stroke="hsl(228.5, 77.2%, 51.5%)" stroke-width="1.5"></path><path d="M1160.55 -38.58L1160.55 -38.58" stroke="hsl(228.5, 77.2%, 51.5%)" stroke-width="1.5"></path><path d="M1160.55 -38.58L1141.04 44.69" stroke="hsl(228.5, 77.2%, 51.5%)" stroke-width="1.5"></path><path d="M1160.55 -38.58L1302.82 -78.71" stroke="hsl(228.5, 77.2%, 51.5%)" stroke-width="1.5"></path><path d="M1141.04 44.69L1141.04 44.69" stroke="hsl(228.5, 77.2%, 51.5%)" stroke-width="1.5"></path><path d="M1141.04 44.69L1245.64 83.55" stroke="hsl(228.5, 77.2%, 51.5%)" stroke-width="1.5"></path><path d="M1141.04 44.69L1302.82 -78.71" stroke="hsl(228.5, 77.2%, 51.5%)" stroke-width="1.5"></path><path d="M1141.04 44.69L1263 225.23" stroke="hsl(228.5, 77.2%, 51.5%)" stroke-width="1.5"></path><path d="M1090.98 375.48L1090.98 375.48" stroke="hsl(228.5, 77.2%, 51.5%)" stroke-width="1.5"></path><path d="M1090.98 375.48L1139.86 201.84" stroke="hsl(228.5, 77.2%, 51.5%)" stroke-width="1.5"></path><path d="M1302.82 -78.71L1302.82 -78.71" stroke="hsl(228.5, 77.2%, 51.5%)" stroke-width="1.5"></path><path d="M1302.82 -78.71L1451.03 -46.49" stroke="hsl(228.5, 77.2%, 51.5%)" stroke-width="1.5"></path><path d="M1245.64 83.55L1245.64 83.55" stroke="hsl(228.5, 77.2%, 51.5%)" stroke-width="1.5"></path><path d="M1245.64 83.55L1263 225.23" stroke="hsl(228.5, 77.2%, 51.5%)" stroke-width="1.5"></path><path d="M1263 225.23L1263 225.23" stroke="hsl(228.5, 77.2%, 51.5%)" stroke-width="1.5"></path><path d="M1263 225.23L1273.19 386.06" stroke="hsl(228.5, 77.2%, 51.5%)" stroke-width="1.5"></path><path d="M1263 225.23L1457.64 203.75" stroke="hsl(228.5, 77.2%, 51.5%)" stroke-width="1.5"></path><path d="M1263 225.23L1391.81 66.67" stroke="hsl(228.5, 77.2%, 51.5%)" stroke-width="1.5"></path><path d="M1273.19 386.06L1273.19 386.06" stroke="hsl(228.5, 77.2%, 51.5%)" stroke-width="1.5"></path><path d="M1273.19 386.06L1295.62 514.87" stroke="hsl(228.5, 77.2%, 51.5%)" stroke-width="1.5"></path><path d="M1273.19 386.06L1445.11 364.83" stroke="hsl(228.5, 77.2%, 51.5%)" stroke-width="1.5"></path><path d="M1295.62 514.87L1295.62 514.87" stroke="hsl(228.5, 77.2%, 51.5%)" stroke-width="1.5"></path><path d="M1295.62 514.87L1088.65 504.46" stroke="hsl(228.5, 77.2%, 51.5%)" stroke-width="1.5"></path><path d="M1451.03 -46.49L1451.03 -46.49" stroke="hsl(228.5, 77.2%, 51.5%)" stroke-width="1.5"></path><path d="M1451.03 -46.49L1559.82 -45.66" stroke="hsl(228.5, 77.2%, 51.5%)" stroke-width="1.5"></path><path d="M1451.03 -46.49L1603.48 48.21" stroke="hsl(228.5, 77.2%, 51.5%)" stroke-width="1.5"></path><path d="M1457.64 203.75L1457.64 203.75" stroke="hsl(228.5, 77.2%, 51.5%)" stroke-width="1.5"></path><path d="M1457.64 203.75L1602.29 237.9" stroke="hsl(228.5, 77.2%, 51.5%)" stroke-width="1.5"></path><path d="M1445.11 364.83L1445.11 364.83" stroke="hsl(228.5, 77.2%, 51.5%)" stroke-width="1.5"></path><path d="M1445.11 364.83L1567.23 365.03" stroke="hsl(228.5, 77.2%, 51.5%)" stroke-width="1.5"></path><path d="M1445.11 364.83L1457.64 203.75" stroke="hsl(228.5, 77.2%, 51.5%)" stroke-width="1.5"></path><path d="M1559.82 -45.66L1559.82 -45.66" stroke="hsl(228.5, 77.2%, 51.5%)" stroke-width="1.5"></path><path d="M1559.82 -45.66L1603.48 48.21" stroke="hsl(228.5, 77.2%, 51.5%)" stroke-width="1.5"></path><path d="M1603.48 48.21L1603.48 48.21" stroke="hsl(228.5, 77.2%, 51.5%)" stroke-width="1.5"></path><path d="M1603.48 48.21L1602.29 237.9" stroke="hsl(228.5, 77.2%, 51.5%)" stroke-width="1.5"></path><path d="M1603.48 48.21L1391.81 66.67" stroke="hsl(228.5, 77.2%, 51.5%)" stroke-width="1.5"></path><path d="M1603.48 48.21L1457.64 203.75" stroke="hsl(228.5, 77.2%, 51.5%)" stroke-width="1.5"></path><path d="M1602.29 237.9L1602.29 237.9" stroke="hsl(228.5, 77.2%, 51.5%)" stroke-width="1.5"></path><path d="M1602.29 237.9L1567.23 365.03" stroke="hsl(228.5, 77.2%, 51.5%)" stroke-width="1.5"></path><path d="M1602.29 237.9L1445.11 364.83" stroke="hsl(228.5, 77.2%, 51.5%)" stroke-width="1.5"></path><path d="M1567.23 365.03L1567.23 365.03" stroke="hsl(228.5, 77.2%, 51.5%)" stroke-width="1.5"></path><path d="M1567.23 365.03L1611.28 534.27" stroke="hsl(228.5, 77.2%, 51.5%)" stroke-width="1.5"></path><path d="M1611.28 534.27L1611.28 534.27" stroke="hsl(228.5, 77.2%, 51.5%)" stroke-width="1.5"></path><path d="M1611.28 534.27L1445.11 364.83" stroke="hsl(228.5, 77.2%, 51.5%)" stroke-width="1.5"></path><path d="M1611.28 534.27L1602.29 237.9" stroke="hsl(228.5, 77.2%, 51.5%)" stroke-width="1.5"></path><path d="M1611.28 534.27L1295.62 514.87" stroke="hsl(228.5, 77.2%, 51.5%)" stroke-width="1.5"></path><path d="M1611.28 534.27L1457.64 203.75" stroke="hsl(228.5, 77.2%, 51.5%)" stroke-width="1.5"></path><circle r="25" cx="53.92" cy="358.98" fill="url(#SvgjsRadialGradient1090)"></circle><circle r="25" cx="552.36" cy="383.53" fill="url(#SvgjsRadialGradient1090)"></circle><circle r="25" cx="709.41" cy="355.93" fill="url(#SvgjsRadialGradient1090)"></circle><circle r="25" cx="826.55" cy="252.08" fill="url(#SvgjsRadialGradient1090)"></circle><circle r="25" cx="804.44" cy="528.04" fill="url(#SvgjsRadialGradient1090)"></circle><circle r="25" cx="974.3" cy="231.58" fill="url(#SvgjsRadialGradient1090)"></circle><circle r="25" cx="1139.86" cy="201.84" fill="url(#SvgjsRadialGradient1090)"></circle><circle r="25" cx="1088.65" cy="504.46" fill="url(#SvgjsRadialGradient1090)"></circle><circle r="25" cx="1391.81" cy="66.67" fill="url(#SvgjsRadialGradient1090)"></circle><circle r="5" cx="-67.99" cy="411.44" fill="#8b9ad9"></circle><circle r="5" cx="-69.31" cy="512.88" fill="#8b9ad9"></circle><circle r="5" cx="41.52" cy="254.47" fill="#8b9ad9"></circle><circle r="5" cx="237.82" cy="402.18" fill="#8b9ad9"></circle><circle r="5" cx="222.8" cy="556.19" fill="#8b9ad9"></circle><circle r="5" cx="383.33" cy="375.61" fill="#8b9ad9"></circle><circle r="5" cx="379.63" cy="547.63" fill="#8b9ad9"></circle><circle r="5" cx="547.02" cy="246.99" fill="#8b9ad9"></circle><circle r="5" cx="560.5" cy="537.07" fill="#8b9ad9"></circle><circle r="5" cx="700.37" cy="191.01" fill="#8b9ad9"></circle><circle r="5" cx="660.79" cy="548.3" fill="#8b9ad9"></circle><circle r="5" cx="845.95" cy="382.13" fill="#8b9ad9"></circle><circle r="5" cx="990.31" cy="368.81" fill="#8b9ad9"></circle><circle r="5" cx="967.36" cy="521.02" fill="#8b9ad9"></circle><circle r="5" cx="1160.55" cy="-38.58" fill="#8b9ad9"></circle><circle r="5" cx="1141.04" cy="44.69" fill="#8b9ad9"></circle><circle r="5" cx="1090.98" cy="375.48" fill="#8b9ad9"></circle><circle r="5" cx="1302.82" cy="-78.71" fill="#8b9ad9"></circle><circle r="5" cx="1245.64" cy="83.55" fill="#8b9ad9"></circle><circle r="5" cx="1263" cy="225.23" fill="#8b9ad9"></circle><circle r="5" cx="1273.19" cy="386.06" fill="#8b9ad9"></circle><circle r="5" cx="1295.62" cy="514.87" fill="#8b9ad9"></circle><circle r="5" cx="1451.03" cy="-46.49" fill="#8b9ad9"></circle><circle r="5" cx="1457.64" cy="203.75" fill="#8b9ad9"></circle><circle r="5" cx="1445.11" cy="364.83" fill="#8b9ad9"></circle><circle r="5" cx="1559.82" cy="-45.66" fill="#8b9ad9"></circle><circle r="5" cx="1603.48" cy="48.21" fill="#8b9ad9"></circle><circle r="5" cx="1602.29" cy="237.9" fill="#8b9ad9"></circle><circle r="5" cx="1567.23" cy="365.03" fill="#8b9ad9"></circle><circle r="5" cx="1611.28" cy="534.27" fill="#8b9ad9"></circle></g><defs><mask id="SvgjsMask1089"><rect width="1366" height="310" fill="#ffffff"></rect></mask><radialGradient id="SvgjsRadialGradient1090"><stop stop-color="#ffffff" offset="0.1"></stop><stop stop-color="#1735b3" offset="0.2"></stop><stop stop-color="rgba(23, 53, 179, 0)" offset="1"></stop></radialGradient></defs></svg>