<svg xmlns="http://www.w3.org/2000/svg" version="1.1" xmlns:xlink="http://www.w3.org/1999/xlink" xmlns:svgjs="http://svgjs.com/svgjs" width="1366" height="90" preserveAspectRatio="none" viewBox="0 0 1366 90"><g mask="url(&quot;#SvgjsMask1000&quot;)" fill="none"><path d="M-42.48 92.99L-42.48 92.99" stroke="#132e65" stroke-width="1.5"></path><path d="M-42.48 92.99L61.14 57.79" stroke="#132e65" stroke-width="1.5"></path><path d="M-42.48 92.99L-101.84 206.46" stroke="#132e65" stroke-width="1.5"></path><path d="M-101.84 206.46L-101.84 206.46" stroke="#132e65" stroke-width="1.5"></path><path d="M-101.84 206.46L93.81 196.87" stroke="#132e65" stroke-width="1.5"></path><path d="M-101.84 206.46L61.14 57.79" stroke="#132e65" stroke-width="1.5"></path><path d="M-101.84 206.46L196.12 89.07" stroke="#132e65" stroke-width="1.5"></path><path d="M61.14 57.79L61.14 57.79" stroke="#132e65" stroke-width="1.5"></path><path d="M61.14 57.79L196.12 89.07" stroke="#132e65" stroke-width="1.5"></path><path d="M61.14 57.79L93.81 196.87" stroke="#132e65" stroke-width="1.5"></path><path d="M61.14 57.79L230.89 215.11" stroke="#132e65" stroke-width="1.5"></path><path d="M93.81 196.87L93.81 196.87" stroke="#132e65" stroke-width="1.5"></path><path d="M93.81 196.87L230.89 215.11" stroke="#132e65" stroke-width="1.5"></path><path d="M93.81 196.87L196.12 89.07" stroke="#132e65" stroke-width="1.5"></path><path d="M196.12 89.07L196.12 89.07" stroke="#132e65" stroke-width="1.5"></path><path d="M196.12 89.07L230.89 215.11" stroke="#132e65" stroke-width="1.5"></path><path d="M230.89 215.11L230.89 215.11" stroke="#132e65" stroke-width="1.5"></path><path d="M230.89 215.11L377.07 246.59" stroke="#132e65" stroke-width="1.5"></path><path d="M377.07 246.59L377.07 246.59" stroke="#132e65" stroke-width="1.5"></path><path d="M377.07 246.59L492.25 208.29" stroke="#132e65" stroke-width="1.5"></path><path d="M509.64 42.31L509.64 42.31" stroke="#132e65" stroke-width="1.5"></path><path d="M509.64 42.31L646.23 109.07" stroke="#132e65" stroke-width="1.5"></path><path d="M509.64 42.31L492.25 208.29" stroke="#132e65" stroke-width="1.5"></path><path d="M509.64 42.31L646.09 213.75" stroke="#132e65" stroke-width="1.5"></path><path d="M509.64 42.31L377.07 246.59" stroke="#132e65" stroke-width="1.5"></path><path d="M492.25 208.29L492.25 208.29" stroke="#132e65" stroke-width="1.5"></path><path d="M492.25 208.29L646.09 213.75" stroke="#132e65" stroke-width="1.5"></path><path d="M492.25 208.29L646.23 109.07" stroke="#132e65" stroke-width="1.5"></path><path d="M492.25 208.29L230.89 215.11" stroke="#132e65" stroke-width="1.5"></path><path d="M646.23 109.07L646.23 109.07" stroke="#132e65" stroke-width="1.5"></path><path d="M646.23 109.07L646.09 213.75" stroke="#132e65" stroke-width="1.5"></path><path d="M646.23 109.07L813.47 84.13" stroke="#132e65" stroke-width="1.5"></path><path d="M646.09 213.75L646.09 213.75" stroke="#132e65" stroke-width="1.5"></path><path d="M831.49 -94.28L831.49 -94.28" stroke="#132e65" stroke-width="1.5"></path><path d="M831.49 -94.28L941.83 -105.98" stroke="#132e65" stroke-width="1.5"></path><path d="M831.49 -94.28L813.47 84.13" stroke="#132e65" stroke-width="1.5"></path><path d="M831.49 -94.28L987.11 91.67" stroke="#132e65" stroke-width="1.5"></path><path d="M831.49 -94.28L646.23 109.07" stroke="#132e65" stroke-width="1.5"></path><path d="M813.47 84.13L813.47 84.13" stroke="#132e65" stroke-width="1.5"></path><path d="M813.47 84.13L809.75 201.31" stroke="#132e65" stroke-width="1.5"></path><path d="M809.75 201.31L809.75 201.31" stroke="#132e65" stroke-width="1.5"></path><path d="M809.75 201.31L943.67 198.04" stroke="#132e65" stroke-width="1.5"></path><path d="M809.75 201.31L646.09 213.75" stroke="#132e65" stroke-width="1.5"></path><path d="M941.83 -105.98L941.83 -105.98" stroke="#132e65" stroke-width="1.5"></path><path d="M941.83 -105.98L987.11 91.67" stroke="#132e65" stroke-width="1.5"></path><path d="M941.83 -105.98L1141.32 -56.39" stroke="#132e65" stroke-width="1.5"></path><path d="M941.83 -105.98L1106.71 51.87" stroke="#132e65" stroke-width="1.5"></path><path d="M941.83 -105.98L813.47 84.13" stroke="#132e65" stroke-width="1.5"></path><path d="M941.83 -105.98L943.67 198.04" stroke="#132e65" stroke-width="1.5"></path><path d="M987.11 91.67L987.11 91.67" stroke="#132e65" stroke-width="1.5"></path><path d="M987.11 91.67L943.67 198.04" stroke="#132e65" stroke-width="1.5"></path><path d="M987.11 91.67L1106.71 51.87" stroke="#132e65" stroke-width="1.5"></path><path d="M987.11 91.67L813.47 84.13" stroke="#132e65" stroke-width="1.5"></path><path d="M943.67 198.04L943.67 198.04" stroke="#132e65" stroke-width="1.5"></path><path d="M943.67 198.04L813.47 84.13" stroke="#132e65" stroke-width="1.5"></path><path d="M1141.32 -56.39L1141.32 -56.39" stroke="#132e65" stroke-width="1.5"></path><path d="M1141.32 -56.39L1106.71 51.87" stroke="#132e65" stroke-width="1.5"></path><path d="M1141.32 -56.39L1301.01 -98.93" stroke="#132e65" stroke-width="1.5"></path><path d="M1106.71 51.87L1106.71 51.87" stroke="#132e65" stroke-width="1.5"></path><path d="M1301.01 -98.93L1301.01 -98.93" stroke="#132e65" stroke-width="1.5"></path><path d="M1301.01 -98.93L1460.05 -95.4" stroke="#132e65" stroke-width="1.5"></path><path d="M1301.01 -98.93L1299.17 85.51" stroke="#132e65" stroke-width="1.5"></path><path d="M1301.01 -98.93L1408.3 52.65" stroke="#132e65" stroke-width="1.5"></path><path d="M1301.01 -98.93L1106.71 51.87" stroke="#132e65" stroke-width="1.5"></path><path d="M1301.01 -98.93L1610.41 -87.78" stroke="#132e65" stroke-width="1.5"></path><path d="M1299.17 85.51L1299.17 85.51" stroke="#132e65" stroke-width="1.5"></path><path d="M1299.17 85.51L1408.3 52.65" stroke="#132e65" stroke-width="1.5"></path><path d="M1299.17 85.51L1282.84 210.44" stroke="#132e65" stroke-width="1.5"></path><path d="M1299.17 85.51L1402.01 214.1" stroke="#132e65" stroke-width="1.5"></path><path d="M1299.17 85.51L1106.71 51.87" stroke="#132e65" stroke-width="1.5"></path><path d="M1282.84 210.44L1282.84 210.44" stroke="#132e65" stroke-width="1.5"></path><path d="M1282.84 210.44L1402.01 214.1" stroke="#132e65" stroke-width="1.5"></path><path d="M1282.84 210.44L1408.3 52.65" stroke="#132e65" stroke-width="1.5"></path><path d="M1282.84 210.44L1106.71 51.87" stroke="#132e65" stroke-width="1.5"></path><path d="M1282.84 210.44L1141.32 -56.39" stroke="#132e65" stroke-width="1.5"></path><path d="M1282.84 210.44L1301.01 -98.93" stroke="#132e65" stroke-width="1.5"></path><path d="M1460.05 -95.4L1460.05 -95.4" stroke="#132e65" stroke-width="1.5"></path><path d="M1460.05 -95.4L1610.41 -87.78" stroke="#132e65" stroke-width="1.5"></path><path d="M1460.05 -95.4L1408.3 52.65" stroke="#132e65" stroke-width="1.5"></path><path d="M1460.05 -95.4L1612.27 58.04" stroke="#132e65" stroke-width="1.5"></path><path d="M1408.3 52.65L1408.3 52.65" stroke="#132e65" stroke-width="1.5"></path><path d="M1408.3 52.65L1402.01 214.1" stroke="#132e65" stroke-width="1.5"></path><path d="M1402.01 214.1L1402.01 214.1" stroke="#132e65" stroke-width="1.5"></path><path d="M1402.01 214.1L1593.58 204.43" stroke="#132e65" stroke-width="1.5"></path><path d="M1402.01 214.1L1612.27 58.04" stroke="#132e65" stroke-width="1.5"></path><path d="M1402.01 214.1L1460.05 -95.4" stroke="#132e65" stroke-width="1.5"></path><path d="M1610.41 -87.78L1610.41 -87.78" stroke="#132e65" stroke-width="1.5"></path><path d="M1610.41 -87.78L1612.27 58.04" stroke="#132e65" stroke-width="1.5"></path><path d="M1612.27 58.04L1612.27 58.04" stroke="#132e65" stroke-width="1.5"></path><path d="M1612.27 58.04L1593.58 204.43" stroke="#132e65" stroke-width="1.5"></path><path d="M1612.27 58.04L1408.3 52.65" stroke="#132e65" stroke-width="1.5"></path><path d="M1593.58 204.43L1593.58 204.43" stroke="#132e65" stroke-width="1.5"></path><path d="M1593.58 204.43L1408.3 52.65" stroke="#132e65" stroke-width="1.5"></path><path d="M1593.58 204.43L1610.41 -87.78" stroke="#132e65" stroke-width="1.5"></path><path d="M1593.58 204.43L1282.84 210.44" stroke="#132e65" stroke-width="1.5"></path><circle r="5" cx="-42.48" cy="92.99" fill="#132e65"></circle><circle r="5" cx="-101.84" cy="206.46" fill="#132e65"></circle><circle r="5" cx="61.14" cy="57.79" fill="#132e65"></circle><circle r="5" cx="93.81" cy="196.87" fill="#132e65"></circle><circle r="5" cx="196.12" cy="89.07" fill="#132e65"></circle><circle r="5" cx="230.89" cy="215.11" fill="#132e65"></circle><circle r="5" cx="377.07" cy="246.59" fill="#132e65"></circle><circle r="5" cx="509.64" cy="42.31" fill="#132e65"></circle><circle r="5" cx="492.25" cy="208.29" fill="#132e65"></circle><circle r="5" cx="646.23" cy="109.07" fill="#132e65"></circle><circle r="5" cx="646.09" cy="213.75" fill="#132e65"></circle><circle r="5" cx="831.49" cy="-94.28" fill="#132e65"></circle><circle r="5" cx="813.47" cy="84.13" fill="#132e65"></circle><circle r="5" cx="809.75" cy="201.31" fill="#132e65"></circle><circle r="5" cx="941.83" cy="-105.98" fill="#132e65"></circle><circle r="5" cx="987.11" cy="91.67" fill="#132e65"></circle><circle r="5" cx="943.67" cy="198.04" fill="#132e65"></circle><circle r="5" cx="1141.32" cy="-56.39" fill="#132e65"></circle><circle r="5" cx="1106.71" cy="51.87" fill="#132e65"></circle><circle r="5" cx="1301.01" cy="-98.93" fill="#132e65"></circle><circle r="5" cx="1299.17" cy="85.51" fill="#132e65"></circle><circle r="5" cx="1282.84" cy="210.44" fill="#132e65"></circle><circle r="5" cx="1460.05" cy="-95.4" fill="#132e65"></circle><circle r="5" cx="1408.3" cy="52.65" fill="#132e65"></circle><circle r="5" cx="1402.01" cy="214.1" fill="#132e65"></circle><circle r="5" cx="1610.41" cy="-87.78" fill="#132e65"></circle><circle r="5" cx="1612.27" cy="58.04" fill="#132e65"></circle><circle r="5" cx="1593.58" cy="204.43" fill="#132e65"></circle><path d="M-76.95 74L-76.95 74" stroke="hsl(228.5, 77.2%, 51.5%)" stroke-width="1.5"></path><path d="M-76.95 74L-58.2 200.45" stroke="hsl(228.5, 77.2%, 51.5%)" stroke-width="1.5"></path><path d="M-76.95 74L47.46 197.67" stroke="hsl(228.5, 77.2%, 51.5%)" stroke-width="1.5"></path><path d="M343.29 253.44L343.29 253.44" stroke="hsl(228.5, 77.2%, 51.5%)" stroke-width="1.5"></path><path d="M343.29 253.44L250.57 229.62" stroke="hsl(228.5, 77.2%, 51.5%)" stroke-width="1.5"></path><path d="M343.29 253.44L391.32 72.34" stroke="hsl(228.5, 77.2%, 51.5%)" stroke-width="1.5"></path><path d="M343.29 253.44L531.66 226.01" stroke="hsl(228.5, 77.2%, 51.5%)" stroke-width="1.5"></path><path d="M343.29 253.44L526.26 103.7" stroke="hsl(228.5, 77.2%, 51.5%)" stroke-width="1.5"></path><path d="M999.38 101.67L999.38 101.67" stroke="hsl(228.5, 77.2%, 51.5%)" stroke-width="1.5"></path><path d="M999.38 101.67L1112.84 97.24" stroke="hsl(228.5, 77.2%, 51.5%)" stroke-width="1.5"></path><path d="M999.38 101.67L1002.96 222.15" stroke="hsl(228.5, 77.2%, 51.5%)" stroke-width="1.5"></path><path d="M1112.84 97.24L1112.84 97.24" stroke="hsl(228.5, 77.2%, 51.5%)" stroke-width="1.5"></path><path d="M1112.84 97.24L1102.68 199.89" stroke="hsl(228.5, 77.2%, 51.5%)" stroke-width="1.5"></path><path d="M1112.84 97.24L1002.96 222.15" stroke="hsl(228.5, 77.2%, 51.5%)" stroke-width="1.5"></path><path d="M1112.84 97.24L1241 221.99" stroke="hsl(228.5, 77.2%, 51.5%)" stroke-width="1.5"></path><path d="M1112.84 97.24L1295.02 51.79" stroke="hsl(228.5, 77.2%, 51.5%)" stroke-width="1.5"></path><path d="M-58.2 200.45L-58.2 200.45" stroke="hsl(228.5, 77.2%, 51.5%)" stroke-width="1.5"></path><path d="M-58.2 200.45L47.46 197.67" stroke="hsl(228.5, 77.2%, 51.5%)" stroke-width="1.5"></path><path d="M-58.2 200.45L250.57 229.62" stroke="hsl(228.5, 77.2%, 51.5%)" stroke-width="1.5"></path><path d="M-58.2 200.45L343.29 253.44" stroke="hsl(228.5, 77.2%, 51.5%)" stroke-width="1.5"></path><path d="M-58.2 200.45L391.32 72.34" stroke="hsl(228.5, 77.2%, 51.5%)" stroke-width="1.5"></path><path d="M-58.2 200.45L531.66 226.01" stroke="hsl(228.5, 77.2%, 51.5%)" stroke-width="1.5"></path><path d="M47.46 197.67L47.46 197.67" stroke="hsl(228.5, 77.2%, 51.5%)" stroke-width="1.5"></path><path d="M250.57 229.62L250.57 229.62" stroke="hsl(228.5, 77.2%, 51.5%)" stroke-width="1.5"></path><path d="M250.57 229.62L47.46 197.67" stroke="hsl(228.5, 77.2%, 51.5%)" stroke-width="1.5"></path><path d="M250.57 229.62L391.32 72.34" stroke="hsl(228.5, 77.2%, 51.5%)" stroke-width="1.5"></path><path d="M391.32 72.34L391.32 72.34" stroke="hsl(228.5, 77.2%, 51.5%)" stroke-width="1.5"></path><path d="M391.32 72.34L526.26 103.7" stroke="hsl(228.5, 77.2%, 51.5%)" stroke-width="1.5"></path><path d="M391.32 72.34L531.66 226.01" stroke="hsl(228.5, 77.2%, 51.5%)" stroke-width="1.5"></path><path d="M391.32 72.34L638.85 97.82" stroke="hsl(228.5, 77.2%, 51.5%)" stroke-width="1.5"></path><path d="M526.26 103.7L526.26 103.7" stroke="hsl(228.5, 77.2%, 51.5%)" stroke-width="1.5"></path><path d="M526.26 103.7L638.85 97.82" stroke="hsl(228.5, 77.2%, 51.5%)" stroke-width="1.5"></path><path d="M526.26 103.7L531.66 226.01" stroke="hsl(228.5, 77.2%, 51.5%)" stroke-width="1.5"></path><path d="M531.66 226.01L531.66 226.01" stroke="hsl(228.5, 77.2%, 51.5%)" stroke-width="1.5"></path><path d="M531.66 226.01L671.85 235.85" stroke="hsl(228.5, 77.2%, 51.5%)" stroke-width="1.5"></path><path d="M531.66 226.01L638.85 97.82" stroke="hsl(228.5, 77.2%, 51.5%)" stroke-width="1.5"></path><path d="M638.85 97.82L638.85 97.82" stroke="hsl(228.5, 77.2%, 51.5%)" stroke-width="1.5"></path><path d="M638.85 97.82L671.85 235.85" stroke="hsl(228.5, 77.2%, 51.5%)" stroke-width="1.5"></path><path d="M671.85 235.85L671.85 235.85" stroke="hsl(228.5, 77.2%, 51.5%)" stroke-width="1.5"></path><path d="M671.85 235.85L810.1 240.17" stroke="hsl(228.5, 77.2%, 51.5%)" stroke-width="1.5"></path><path d="M671.85 235.85L526.26 103.7" stroke="hsl(228.5, 77.2%, 51.5%)" stroke-width="1.5"></path><path d="M810.1 240.17L810.1 240.17" stroke="hsl(228.5, 77.2%, 51.5%)" stroke-width="1.5"></path><path d="M810.1 240.17L1002.96 222.15" stroke="hsl(228.5, 77.2%, 51.5%)" stroke-width="1.5"></path><path d="M810.1 240.17L638.85 97.82" stroke="hsl(228.5, 77.2%, 51.5%)" stroke-width="1.5"></path><path d="M810.1 240.17L999.38 101.67" stroke="hsl(228.5, 77.2%, 51.5%)" stroke-width="1.5"></path><path d="M810.1 240.17L531.66 226.01" stroke="hsl(228.5, 77.2%, 51.5%)" stroke-width="1.5"></path><path d="M810.1 240.17L1102.68 199.89" stroke="hsl(228.5, 77.2%, 51.5%)" stroke-width="1.5"></path><path d="M1002.96 222.15L1002.96 222.15" stroke="hsl(228.5, 77.2%, 51.5%)" stroke-width="1.5"></path><path d="M1002.96 222.15L1102.68 199.89" stroke="hsl(228.5, 77.2%, 51.5%)" stroke-width="1.5"></path><path d="M1102.68 199.89L1102.68 199.89" stroke="hsl(228.5, 77.2%, 51.5%)" stroke-width="1.5"></path><path d="M1266.67 -106.1L1266.67 -106.1" stroke="hsl(228.5, 77.2%, 51.5%)" stroke-width="1.5"></path><path d="M1266.67 -106.1L1398.81 -63.43" stroke="hsl(228.5, 77.2%, 51.5%)" stroke-width="1.5"></path><path d="M1266.67 -106.1L1295.02 51.79" stroke="hsl(228.5, 77.2%, 51.5%)" stroke-width="1.5"></path><path d="M1266.67 -106.1L1426.33 56.56" stroke="hsl(228.5, 77.2%, 51.5%)" stroke-width="1.5"></path><path d="M1266.67 -106.1L1112.84 97.24" stroke="hsl(228.5, 77.2%, 51.5%)" stroke-width="1.5"></path><path d="M1266.67 -106.1L1241 221.99" stroke="hsl(228.5, 77.2%, 51.5%)" stroke-width="1.5"></path><path d="M1295.02 51.79L1295.02 51.79" stroke="hsl(228.5, 77.2%, 51.5%)" stroke-width="1.5"></path><path d="M1295.02 51.79L1426.33 56.56" stroke="hsl(228.5, 77.2%, 51.5%)" stroke-width="1.5"></path><path d="M1295.02 51.79L1398.81 -63.43" stroke="hsl(228.5, 77.2%, 51.5%)" stroke-width="1.5"></path><path d="M1241 221.99L1241 221.99" stroke="hsl(228.5, 77.2%, 51.5%)" stroke-width="1.5"></path><path d="M1241 221.99L1102.68 199.89" stroke="hsl(228.5, 77.2%, 51.5%)" stroke-width="1.5"></path><path d="M1241 221.99L1295.02 51.79" stroke="hsl(228.5, 77.2%, 51.5%)" stroke-width="1.5"></path><path d="M1241 221.99L1442.87 235.97" stroke="hsl(228.5, 77.2%, 51.5%)" stroke-width="1.5"></path><path d="M1241 221.99L1002.96 222.15" stroke="hsl(228.5, 77.2%, 51.5%)" stroke-width="1.5"></path><path d="M1241 221.99L1426.33 56.56" stroke="hsl(228.5, 77.2%, 51.5%)" stroke-width="1.5"></path><path d="M1398.81 -63.43L1398.81 -63.43" stroke="hsl(228.5, 77.2%, 51.5%)" stroke-width="1.5"></path><path d="M1398.81 -63.43L1426.33 56.56" stroke="hsl(228.5, 77.2%, 51.5%)" stroke-width="1.5"></path><path d="M1398.81 -63.43L1607.3 -64.07" stroke="hsl(228.5, 77.2%, 51.5%)" stroke-width="1.5"></path><path d="M1426.33 56.56L1426.33 56.56" stroke="hsl(228.5, 77.2%, 51.5%)" stroke-width="1.5"></path><path d="M1426.33 56.56L1442.87 235.97" stroke="hsl(228.5, 77.2%, 51.5%)" stroke-width="1.5"></path><path d="M1426.33 56.56L1545.83 194.88" stroke="hsl(228.5, 77.2%, 51.5%)" stroke-width="1.5"></path><path d="M1442.87 235.97L1442.87 235.97" stroke="hsl(228.5, 77.2%, 51.5%)" stroke-width="1.5"></path><path d="M1442.87 235.97L1545.83 194.88" stroke="hsl(228.5, 77.2%, 51.5%)" stroke-width="1.5"></path><path d="M1607.3 -64.07L1607.3 -64.07" stroke="hsl(228.5, 77.2%, 51.5%)" stroke-width="1.5"></path><path d="M1607.3 -64.07L1426.33 56.56" stroke="hsl(228.5, 77.2%, 51.5%)" stroke-width="1.5"></path><path d="M1545.83 194.88L1545.83 194.88" stroke="hsl(228.5, 77.2%, 51.5%)" stroke-width="1.5"></path><circle r="25" cx="-76.95" cy="74" fill="url(#SvgjsRadialGradient1001)"></circle><circle r="25" cx="343.29" cy="253.44" fill="url(#SvgjsRadialGradient1001)"></circle><circle r="25" cx="999.38" cy="101.67" fill="url(#SvgjsRadialGradient1001)"></circle><circle r="25" cx="1112.84" cy="97.24" fill="url(#SvgjsRadialGradient1001)"></circle><circle r="5" cx="-58.2" cy="200.45" fill="#8b9ad9"></circle><circle r="5" cx="47.46" cy="197.67" fill="#8b9ad9"></circle><circle r="5" cx="250.57" cy="229.62" fill="#8b9ad9"></circle><circle r="5" cx="391.32" cy="72.34" fill="#8b9ad9"></circle><circle r="5" cx="526.26" cy="103.7" fill="#8b9ad9"></circle><circle r="5" cx="531.66" cy="226.01" fill="#8b9ad9"></circle><circle r="5" cx="638.85" cy="97.82" fill="#8b9ad9"></circle><circle r="5" cx="671.85" cy="235.85" fill="#8b9ad9"></circle><circle r="5" cx="810.1" cy="240.17" fill="#8b9ad9"></circle><circle r="5" cx="1002.96" cy="222.15" fill="#8b9ad9"></circle><circle r="5" cx="1102.68" cy="199.89" fill="#8b9ad9"></circle><circle r="5" cx="1266.67" cy="-106.1" fill="#8b9ad9"></circle><circle r="5" cx="1295.02" cy="51.79" fill="#8b9ad9"></circle><circle r="5" cx="1241" cy="221.99" fill="#8b9ad9"></circle><circle r="5" cx="1398.81" cy="-63.43" fill="#8b9ad9"></circle><circle r="5" cx="1426.33" cy="56.56" fill="#8b9ad9"></circle><circle r="5" cx="1442.87" cy="235.97" fill="#8b9ad9"></circle><circle r="5" cx="1607.3" cy="-64.07" fill="#8b9ad9"></circle><circle r="5" cx="1545.83" cy="194.88" fill="#8b9ad9"></circle></g><defs><mask id="SvgjsMask1000"><rect width="1366" height="90" fill="#ffffff"></rect></mask><radialGradient id="SvgjsRadialGradient1001"><stop stop-color="#ffffff" offset="0.1"></stop><stop stop-color="#1735b3" offset="0.2"></stop><stop stop-color="rgba(23, 53, 179, 0)" offset="1"></stop></radialGradient></defs></svg>